<?xml version="1.0" encoding="iso-8859-1"?>
<!-- Generator: Adobe Illustrator 19.0.0, SVG Export Plug-In . SVG Version: 6.00 Build 0)  -->
<svg version="1.1" id="Layer_1" xmlns="http://www.w3.org/2000/svg" xmlns:xlink="http://www.w3.org/1999/xlink" x="0px" y="0px"
	 viewBox="0 0 512 512" style="enable-background:new 0 0 512 512;" xml:space="preserve">
<path style="fill:#4D4D4D;" d="M278.389,166.329c-5.27,0-9.542-4.272-9.542-9.542V73.282c0-29.885-24.313-54.198-54.198-54.198
	c-14.464,0-28.072,5.637-38.32,15.873c-10.229,10.24-15.866,23.855-15.866,38.325v83.506c0,5.27-4.272,9.542-9.542,9.542
	s-9.542-4.272-9.542-9.542V73.282c0-19.565,7.62-37.968,21.455-51.819C176.693,7.62,195.091,0,214.649,0
	c40.408,0,73.282,32.874,73.282,73.282v83.506C287.931,162.057,283.659,166.329,278.389,166.329z"/>
<polygon style="fill:#90BC42;" points="197.483,121.495 174.442,511.987 59.558,511.987 82.598,121.495 150.918,121.495 "/>
<polygon style="fill:#9AD14B;" points="142.254,511.987 165.295,121.495 278.385,121.495 346.705,121.495 429.402,121.495 
	452.442,512 142.254,512 "/>
<path style="fill:#808080;" d="M361.085,187.021c-5.27,0-9.542-4.272-9.542-9.542V73.277c0-29.883-24.311-54.193-54.193-54.193
	s-54.193,24.31-54.193,54.193v104.203c0,5.27-4.272,9.542-9.542,9.542s-9.542-4.272-9.542-9.542V73.277
	C224.074,32.871,256.945,0,297.349,0c40.405,0,73.277,32.871,73.277,73.277v104.203
	C370.627,182.749,366.355,187.021,361.085,187.021z"/>
<g>
	<path style="fill:#FFFFFF;" d="M390.361,282.736c-3.726-3.725-9.767-3.726-13.495,0l-26.156,26.156h-15.454
		c-0.595-1.941-1.373-3.819-2.324-5.613l13.726-13.726c3.726-3.726,3.726-9.768-0.001-13.495c-3.725-3.726-9.767-3.725-13.493,0
		l-13.724,13.725c-1.794-0.952-3.673-1.73-5.614-2.326v-15.462l26.151-26.151c3.726-3.726,3.726-9.768,0-13.495
		c-3.728-3.726-9.768-3.726-13.495,0l-22.2,22.201l-22.201-22.201c-3.728-3.725-9.768-3.728-13.495,0
		c-3.726,3.726-3.726,9.768,0,13.495l26.158,26.156v15.454c-1.943,0.595-3.822,1.374-5.616,2.326l-13.723-13.723
		c-3.726-3.725-9.768-3.726-13.494,0c-3.728,3.726-3.728,9.768-0.001,13.495l13.731,13.731c-0.954,1.807-1.721,3.686-2.309,5.608
		h-15.479l-26.155-26.156c-3.726-3.725-9.768-3.726-13.493,0c-3.728,3.726-3.728,9.768-0.001,13.495l22.201,22.201l-22.201,22.201
		c-3.726,3.726-3.726,9.768,0,13.495c1.864,1.863,4.307,2.795,6.748,2.795c2.441,0,4.884-0.931,6.748-2.795l26.15-26.15h15.487
		c0.589,1.921,1.356,3.8,2.31,5.606l-13.734,13.734c-3.726,3.726-3.726,9.768,0.001,13.495c1.863,1.863,4.305,2.795,6.747,2.795
		s4.884-0.931,6.748-2.795l13.734-13.735c1.804,0.952,3.679,1.718,5.599,2.307l0.004,15.482L268.59,391.02
		c-3.726,3.726-3.726,9.768,0,13.495c3.728,3.725,9.768,3.726,13.495,0l22.201-22.201l22.199,22.201
		c1.864,1.864,4.305,2.795,6.748,2.795c2.441,0,4.884-0.931,6.748-2.795c3.726-3.726,3.726-9.768,0-13.495l-26.152-26.152
		l-0.004-15.483c1.922-0.589,3.802-1.356,5.607-2.31l13.737,13.737c1.864,1.864,4.305,2.795,6.748,2.795
		c2.441,0,4.884-0.931,6.747-2.795c3.728-3.726,3.728-9.768,0.001-13.495l-13.729-13.729c0.952-1.793,1.729-3.67,2.324-5.611h15.46
		l26.151,26.151c1.864,1.863,4.307,2.795,6.748,2.795c2.441,0,4.884-0.931,6.748-2.795c3.726-3.726,3.726-9.768,0-13.495
		l-22.202-22.201l22.202-22.201C394.088,292.505,394.088,286.463,390.361,282.736z M294.863,309.017
		c2.517-2.515,5.859-3.899,9.416-3.899c3.556,0,6.899,1.384,9.415,3.899c2.515,2.515,3.899,5.859,3.899,9.415
		s-1.385,6.899-3.901,9.415c-5.191,5.193-13.639,5.191-18.829,0C289.673,322.656,289.673,314.208,294.863,309.017L294.863,309.017z"
		/>
	<circle style="fill:#FFFFFF;" cx="370.403" cy="252.313" r="9.542"/>
	<circle style="fill:#FFFFFF;" cx="370.403" cy="384.551" r="9.542"/>
	<circle style="fill:#FFFFFF;" cx="238.166" cy="384.551" r="9.542"/>
	<circle style="fill:#FFFFFF;" cx="238.166" cy="252.313" r="9.542"/>
</g>
<g>
</g>
<g>
</g>
<g>
</g>
<g>
</g>
<g>
</g>
<g>
</g>
<g>
</g>
<g>
</g>
<g>
</g>
<g>
</g>
<g>
</g>
<g>
</g>
<g>
</g>
<g>
</g>
<g>
</g>
</svg>
