<?xml version="1.0" encoding="iso-8859-1"?>
<!-- Generator: Adobe Illustrator 19.0.0, SVG Export Plug-In . SVG Version: 6.00 Build 0)  -->
<svg version="1.1" id="Layer_1" xmlns="http://www.w3.org/2000/svg" xmlns:xlink="http://www.w3.org/1999/xlink" x="0px" y="0px"
	 viewBox="0 0 336.391 336.391" style="enable-background:new 0 0 336.391 336.391;" xml:space="preserve">
<g id="XMLID_985_">
	<g id="XMLID_986_">
		<path id="XMLID_33_" style="fill:#49B86E;" d="M279.029,144.352c-36.175,3.909-70.075-35.245-70.075-35.245
			s24.752-45.493,60.927-49.403c25.668-2.774,50.19,16.133,62.27,27.35c4.842,4.496,5.636,11.849,1.867,17.275
			C324.614,117.869,304.697,141.578,279.029,144.352z"/>
		<path id="XMLID_32_" style="fill:#49B86E;" d="M167.836,58.21c3.288,30.428,41.554,51.247,41.554,51.247
			s32.934-28.514,29.645-58.942c-2.224-20.577-20.444-36.761-32.008-45.082c-5.479-3.943-13.043-3.126-17.554,1.897
			C179.954,17.931,165.612,37.633,167.836,58.21z"/>
	</g>
	<path id="XMLID_989_" style="fill:#91C6A5;" d="M147.794,70.195L28.588,162.793v139.225c0,17.358,14.072,31.43,31.43,31.43h175.554
		c17.358,0,31.43-14.072,31.43-31.43V162.793L147.794,70.195z"/>
	<g id="XMLID_990_">
		<path id="XMLID_991_" style="fill:#2B7B57;" d="M271.532,182.723L147.795,89.011L24.057,182.723
			c-6.604,5.002-16.013,3.703-21.014-2.902l0,0c-5.002-6.604-3.702-16.012,2.902-21.014l131.753-99.782
			c5.972-4.523,14.223-4.523,20.194,0l131.753,99.782c6.604,5.002,7.903,14.41,2.902,21.014l0,0
			C287.545,186.426,278.136,187.725,271.532,182.723z"/>
	</g>
	<path id="XMLID_3_" style="fill:#2B7B57;" d="M131.218,234.114h33.153c15.606,0,28.257,12.651,28.257,28.257v71.076h-89.667
		v-71.076C102.961,246.765,115.612,234.114,131.218,234.114z"/>
</g>
<g>
</g>
<g>
</g>
<g>
</g>
<g>
</g>
<g>
</g>
<g>
</g>
<g>
</g>
<g>
</g>
<g>
</g>
<g>
</g>
<g>
</g>
<g>
</g>
<g>
</g>
<g>
</g>
<g>
</g>
</svg>
