<?xml version="1.0" encoding="iso-8859-1"?>
<!-- Generator: Adobe Illustrator 19.0.0, SVG Export Plug-In . SVG Version: 6.00 Build 0)  -->
<svg version="1.1" id="Capa_1" xmlns="http://www.w3.org/2000/svg" xmlns:xlink="http://www.w3.org/1999/xlink" x="0px" y="0px"
	 viewBox="0 0 470 470" style="enable-background:new 0 0 470 470;" xml:space="preserve">
<g>
	<path style="fill:#FFE3A1;" d="M431.904,182.24c6.184,2.053,11.888,5.167,16.898,9.123c0.306-4.428-0.12-8.906-1.299-13.303
		c-1.178-4.398-3.048-8.49-5.527-12.171C439.615,171.82,436.233,177.369,431.904,182.24z"/>
	<path style="fill:#FFE3A1;" d="M448.802,278.635c-5.004,3.951-10.699,7.063-16.874,9.117c4.264,4.783,7.669,10.291,10.069,16.327
		c2.468-3.674,4.331-7.755,5.506-12.141C448.682,287.542,449.108,283.063,448.802,278.635z"/>
	<path style="fill:#FFE3A1;" d="M390.338,380.296c-3.76,0-7.503-0.387-11.169-1.144c1.301,6.273,1.496,12.745,0.556,19.172
		c3.974-1.947,7.628-4.55,10.839-7.761c3.215-3.215,5.82-6.875,7.768-10.855C395.704,380.092,393.034,380.296,390.338,380.296z"/>
	<path style="fill:#FFE3A1;" d="M304.12,441.97c-5.982-2.396-11.526-5.803-16.353-10.088c-2.054,6.192-5.17,11.904-9.131,16.92
		c4.428,0.306,8.906-0.12,13.304-1.298C296.342,446.324,300.436,444.452,304.12,441.97z"/>
	<path style="fill:#FFE3A1;" d="M165.88,441.97c3.684,2.482,7.778,4.354,12.18,5.534c4.399,1.179,8.877,1.604,13.305,1.298
		c-3.961-5.017-7.079-10.729-9.133-16.921C177.405,436.167,171.862,439.574,165.88,441.97z"/>
	<path style="fill:#FFE3A1;" d="M90.31,398.341c-0.921-6.317-0.767-12.813,0.545-19.195c-3.675,0.761-7.428,1.15-11.197,1.15
		c-2.695,0-5.363-0.204-7.99-0.587c1.948,3.981,4.554,7.64,7.769,10.856C82.657,393.784,86.322,396.392,90.31,398.341z"/>
	<path style="fill:#FFE3A1;" d="M38.096,287.76c-6.184-2.053-11.888-5.167-16.898-9.123c-0.306,4.428,0.12,8.906,1.299,13.303
		c1.178,4.398,3.048,8.49,5.527,12.171C30.385,298.18,33.767,292.631,38.096,287.76z"/>
	<path style="fill:#FFE3A1;" d="M21.198,191.365c5.004-3.951,10.699-7.063,16.874-9.117c-4.264-4.783-7.67-10.291-10.069-16.328
		c-2.468,3.674-4.331,7.755-5.506,12.141C21.318,182.458,20.892,186.937,21.198,191.365z"/>
	<path style="fill:#FFE3A1;" d="M79.662,89.704c3.76,0,7.503,0.387,11.169,1.144c-1.301-6.273-1.496-12.745-0.556-19.172
		c-3.974,1.947-7.628,4.55-10.839,7.761c-3.215,3.215-5.82,6.875-7.768,10.855C74.296,89.908,76.965,89.704,79.662,89.704z"/>
	<path style="fill:#FFE3A1;" d="M165.88,28.03c5.982,2.396,11.526,5.803,16.353,10.088c2.054-6.192,5.17-11.904,9.131-16.92
		c-4.428-0.306-8.906,0.12-13.304,1.298C173.658,23.676,169.564,25.548,165.88,28.03z"/>
	<path style="fill:#FFE3A1;" d="M304.12,28.03c-3.684-2.482-7.778-4.354-12.18-5.534c-4.398-1.178-8.877-1.604-13.304-1.298
		c3.961,5.017,7.078,10.729,9.133,16.921C292.595,33.833,298.138,30.426,304.12,28.03z"/>
	<path style="fill:#FFE3A1;" d="M379.69,71.659c0.921,6.317,0.767,12.813-0.545,19.195c3.675-0.761,7.428-1.15,11.197-1.15
		c2.695,0,5.363,0.204,7.99,0.587c-1.948-3.981-4.554-7.64-7.769-10.856C387.343,76.216,383.678,73.608,379.69,71.659z"/>
	<path style="fill:#FFC743;" d="M363.905,400.888c2.727-10.177,1.431-20.792-3.623-29.999l-93.858-93.858
		c-3.299,2.473-6.9,4.562-10.732,6.212l21.639,80.758c1.072,4.001-1.302,8.114-5.303,9.186c-0.65,0.175-1.304,0.258-1.946,0.258
		c-3.312,0-6.342-2.21-7.24-5.561l-21.64-80.762c-2.035,0.241-4.102,0.379-6.201,0.379s-4.165-0.138-6.201-0.379l-34.354,128.21
		C194.934,437.286,212.932,455,235,455c22.072,0,40.071-17.719,40.552-39.677l-4.947-18.462c-1.072-4.001,1.302-8.113,5.303-9.186
		c4.002-1.076,8.114,1.303,9.186,5.303l4.943,18.446c7.331,12.072,20.542,19.546,34.72,19.546c7.074,0,14.074-1.883,20.243-5.444
		C354.386,420.106,361.1,411.356,363.905,400.888z"/>
	<path style="fill:#FFC743;" d="M58.558,179.958l128.199,34.351c1.65-3.833,3.739-7.434,6.212-10.733l-93.848-93.848
		c-5.977-3.278-12.68-5.024-19.459-5.024c-14.476,0-27.959,7.776-35.187,20.296c-5.419,9.386-6.859,20.32-4.054,30.789
		C43.148,165.967,49.578,174.511,58.558,179.958z"/>
	<path style="fill:#FFC743;" d="M79.658,365.296c6.783,0,13.49-1.749,19.47-5.031l93.841-93.84c-2.473-3.299-4.562-6.9-6.212-10.733
		l-80.758,21.639c-0.65,0.175-1.303,0.258-1.946,0.258c-3.312,0-6.342-2.21-7.24-5.561c-1.072-4.001,1.302-8.114,5.303-9.186
		l80.763-21.64c-0.241-2.036-0.379-4.102-0.379-6.201s0.138-4.166,0.379-6.201L54.671,194.445C32.715,194.932,15,212.932,15,235
		c0,22.072,17.719,40.072,39.678,40.552l18.462-4.946c4-1.073,8.113,1.302,9.186,5.304c1.072,4.001-1.303,8.113-5.304,9.185
		l-18.467,4.947C39.783,301.441,33.44,325.887,44.475,345C51.702,357.519,65.184,365.296,79.658,365.296z"/>
	<path style="fill:#FFC743;" d="M411.443,290.042l-128.2-34.351c-1.65,3.833-3.739,7.434-6.212,10.733l93.848,93.848
		c5.977,3.278,12.68,5.024,19.459,5.024c14.476,0.001,27.959-7.776,35.187-20.296c5.419-9.386,6.859-20.32,4.054-30.789
		C426.852,304.033,420.422,295.489,411.443,290.042z"/>
	<path style="fill:#FFC743;" d="M194.448,54.677l34.352,128.202c2.035-0.241,4.102-0.379,6.201-0.379s4.165,0.138,6.201,0.379
		l34.354-128.21C275.066,32.714,257.068,15,235,15C212.928,15,194.929,32.719,194.448,54.677z"/>
	<path style="fill:#FFC743;" d="M125,425.525c6.169,3.562,13.169,5.444,20.243,5.444c14.182,0,27.394-7.478,34.722-19.554
		l34.344-128.173c-3.833-1.65-7.434-3.739-10.733-6.212l-93.864,93.863C99.159,390.152,105.889,414.492,125,425.525z"/>
	<path style="fill:#FFC743;" d="M106.095,69.112c-2.727,10.177-1.431,20.792,3.623,29.999l93.858,93.858
		c3.299-2.473,6.9-4.562,10.732-6.212L179.963,58.576c-7.331-12.072-20.542-19.546-34.719-19.546
		c-7.074,0-14.074,1.883-20.243,5.444C115.614,49.894,108.9,58.644,106.095,69.112z"/>
	<path style="fill:#FFC743;" d="M345,44.475c-6.169-3.562-13.169-5.444-20.243-5.444c-14.182,0-27.394,7.478-34.722,19.554
		l-34.344,128.173c3.833,1.65,7.434,3.739,10.733,6.212l93.864-93.863C370.841,79.848,364.111,55.508,345,44.475z"/>
	<path style="fill:#FFC743;" d="M415.323,194.448l-128.201,34.351c0.241,2.036,0.379,4.102,0.379,6.201
		c0,2.099-0.138,4.166-0.379,6.201l128.208,34.354C437.285,275.068,455,257.068,455,235
		C455,212.928,437.281,194.928,415.323,194.448z"/>
	<path style="fill:#FFC743;" d="M390.342,104.704c-6.783,0-13.49,1.749-19.47,5.031l-93.841,93.84
		c2.473,3.299,4.562,6.9,6.212,10.734l128.202-34.351c18.772-11.399,25.115-35.845,14.08-54.958
		C418.298,112.481,404.816,104.704,390.342,104.704z"/>
	<path style="fill:#1C1918;" d="M470,235c0-10.946-3.187-21.158-8.672-29.77c3.188-10.074,3.432-20.727,0.665-31.053
		c-2.767-10.326-8.304-19.43-16.103-26.561c0.444-10.201-1.901-20.638-7.374-30.117c-5.345-9.258-13.189-16.617-22.393-21.434
		c-2.275-10.322-7.391-19.674-14.953-27.237c-7.56-7.559-16.908-12.675-27.227-14.951c-4.716-9.056-11.965-16.922-21.443-22.394
		c-8.446-4.877-18.039-7.454-27.743-7.454c-0.801,0-1.6,0.021-2.396,0.056c-7.127-7.786-16.224-13.314-26.539-16.078
		c-10.326-2.765-20.979-2.523-31.054,0.665C256.156,3.187,245.945,0,235,0c-10.945,0-21.157,3.187-29.769,8.672
		c-10.074-3.188-20.727-3.431-31.053-0.665c-10.316,2.764-19.412,8.292-26.539,16.078c-0.796-0.034-1.594-0.056-2.395-0.056
		c-9.704,0-19.297,2.577-27.743,7.454c-9.286,5.361-16.649,13.111-21.477,22.401c-10.305,2.28-19.641,7.393-27.193,14.945
		c-7.562,7.563-12.678,16.914-14.953,27.236c-9.204,4.816-17.048,12.175-22.393,21.434c-5.361,9.286-7.863,19.68-7.399,30.14
		c-7.785,7.127-13.314,16.223-16.077,26.538c-2.767,10.325-2.524,20.978,0.665,31.054C3.187,213.844,0,224.055,0,235
		c0,10.946,3.187,21.158,8.672,29.77c-3.188,10.074-3.432,20.727-0.665,31.053c2.767,10.326,8.304,19.43,16.103,26.561
		c-0.444,10.201,1.901,20.638,7.374,30.117c5.345,9.258,13.189,16.617,22.393,21.434c2.275,10.322,7.391,19.674,14.953,27.237
		c7.56,7.559,16.908,12.675,27.227,14.951c4.716,9.056,11.965,16.922,21.443,22.394c8.446,4.877,18.039,7.454,27.743,7.454
		c0.801,0,1.6-0.021,2.396-0.056c7.127,7.786,16.224,13.315,26.539,16.078c4.775,1.279,9.62,1.917,14.446,1.917
		c5.607,0,11.185-0.875,16.599-2.588C213.836,466.81,224.051,470,235,470c10.949,0,21.165-3.189,29.779-8.679
		c5.413,1.712,10.99,2.588,16.598,2.588c4.825,0,9.671-0.638,14.446-1.917c10.316-2.764,19.412-8.292,26.539-16.078
		c0.796,0.034,1.594,0.056,2.395,0.056c9.704,0,19.297-2.577,27.743-7.454c9.286-5.361,16.649-13.111,21.477-22.401
		c10.305-2.28,19.641-7.393,27.193-14.945c7.562-7.563,12.678-16.914,14.953-27.237c9.204-4.816,17.048-12.176,22.393-21.433
		c5.361-9.286,7.863-19.68,7.399-30.14c7.785-7.127,13.314-16.223,16.078-26.538c2.767-10.327,2.523-20.98-0.665-31.054
		C466.813,256.156,470,245.945,470,235z M425.525,345c-7.228,12.52-20.711,20.297-35.187,20.296c-6.779,0-13.482-1.746-19.459-5.024
		l-93.848-93.848c2.473-3.299,4.562-6.9,6.212-10.733l128.2,34.351c8.98,5.447,15.409,13.991,18.136,24.169
		C432.384,324.68,430.944,335.614,425.525,345z M278.636,448.802c3.96-5.016,7.077-10.728,9.131-16.92
		c4.827,4.285,10.371,7.692,16.353,10.088c-3.684,2.482-7.778,4.354-12.18,5.534C287.542,448.682,283.064,449.108,278.636,448.802z
		 M324.757,430.97c-14.178,0-27.389-7.474-34.72-19.546l-4.943-18.446c-1.072-4-5.184-6.379-9.186-5.303
		c-4.001,1.072-6.375,5.185-5.303,9.186l4.947,18.462C275.071,437.281,257.072,455,235,455c-22.068,0-40.066-17.714-40.555-39.669
		l34.354-128.21c2.035,0.241,4.102,0.379,6.201,0.379s4.165-0.138,6.201-0.379l21.64,80.762c0.898,3.351,3.928,5.561,7.24,5.561
		c0.643,0,1.296-0.083,1.946-0.258c4.001-1.071,6.375-5.185,5.303-9.186l-21.639-80.758c3.833-1.65,7.434-3.739,10.732-6.212
		l93.858,93.858c5.054,9.207,6.35,19.822,3.623,29.999c-2.805,10.469-9.519,19.219-18.905,24.638
		C338.831,429.087,331.831,430.97,324.757,430.97z M178.06,447.504c-4.402-1.18-8.496-3.052-12.18-5.534
		c5.982-2.396,11.526-5.803,16.352-10.089c2.055,6.193,5.172,11.905,9.133,16.921C186.937,449.108,182.458,448.683,178.06,447.504z
		 M58.555,290.042l18.467-4.947c4.001-1.071,6.375-5.184,5.304-9.185c-1.072-4.002-5.185-6.377-9.186-5.304l-18.462,4.946
		C32.719,275.072,15,257.072,15,235c0-22.068,17.715-40.068,39.671-40.555l128.208,34.354c-0.241,2.036-0.379,4.102-0.379,6.201
		s0.138,4.166,0.379,6.201l-80.763,21.64c-4.001,1.071-6.375,5.185-5.303,9.186c0.898,3.351,3.928,5.561,7.24,5.561
		c0.643,0,1.296-0.083,1.946-0.258l80.758-21.639c1.65,3.833,3.739,7.434,6.212,10.733l-93.841,93.84
		c-5.98,3.283-12.686,5.031-19.47,5.031c-14.475,0-27.956-7.777-35.184-20.296C33.44,325.887,39.783,301.441,58.555,290.042z
		 M21.198,278.637c5.01,3.956,10.714,7.07,16.898,9.123c-4.328,4.871-7.711,10.42-10.072,16.351
		c-2.479-3.682-4.349-7.773-5.527-12.171C21.318,287.542,20.892,283.064,21.198,278.637z M44.475,125
		c7.228-12.52,20.711-20.296,35.187-20.296c6.779,0,13.482,1.746,19.459,5.024l93.848,93.848c-2.473,3.299-4.562,6.9-6.212,10.733
		L58.558,179.958c-8.98-5.447-15.41-13.991-18.137-24.169C37.616,145.32,39.056,134.386,44.475,125z M291.94,22.496
		c4.402,1.18,8.496,3.052,12.18,5.534c-5.982,2.396-11.526,5.803-16.352,10.089c-2.054-6.192-5.172-11.904-9.133-16.921
		C283.064,20.892,287.542,21.318,291.94,22.496z M411.445,179.958l-128.202,34.351c-1.65-3.833-3.74-7.434-6.212-10.734
		l93.841-93.84c5.98-3.283,12.686-5.031,19.47-5.031c14.475,0,27.956,7.777,35.184,20.296
		C436.56,144.113,430.217,168.559,411.445,179.958z M415.329,275.555l-128.208-34.354c0.241-2.036,0.379-4.102,0.379-6.201
		c0-2.099-0.138-4.166-0.379-6.201l128.201-34.351C437.281,194.928,455,212.928,455,235
		C455,257.068,437.285,275.068,415.329,275.555z M197.5,235c0-20.678,16.822-37.5,37.5-37.5s37.5,16.822,37.5,37.5
		s-16.822,37.5-37.5,37.5S197.5,255.678,197.5,235z M448.802,191.363c-5.01-3.956-10.714-7.07-16.898-9.123
		c4.328-4.871,7.711-10.42,10.072-16.351c2.479,3.682,4.349,7.773,5.527,12.171C448.682,182.458,449.108,186.936,448.802,191.363z
		 M390.342,89.704c-3.769,0-7.522,0.39-11.197,1.15c1.312-6.382,1.466-12.879,0.545-19.195c3.988,1.949,7.653,4.557,10.873,7.776
		c3.215,3.216,5.82,6.875,7.769,10.856C395.705,89.908,393.037,89.704,390.342,89.704z M360.288,99.106l-93.864,93.863
		c-3.299-2.473-6.9-4.562-10.733-6.212l34.344-128.173c7.328-12.076,20.54-19.554,34.722-19.554c7.074,0,14.074,1.883,20.243,5.444
		C364.111,55.508,370.841,79.848,360.288,99.106z M275.555,54.669l-34.354,128.21c-2.035-0.241-4.102-0.379-6.201-0.379
		s-4.165,0.138-6.201,0.379L194.448,54.677C194.929,32.719,212.928,15,235,15C257.068,15,275.066,32.714,275.555,54.669z
		 M191.364,21.198c-3.96,5.016-7.077,10.728-9.131,16.92c-4.827-4.285-10.371-7.692-16.353-10.088
		c3.684-2.482,7.778-4.354,12.18-5.534C182.458,21.318,186.936,20.892,191.364,21.198z M145.243,39.03
		c14.178,0,27.389,7.474,34.719,19.546l34.346,128.181c-3.833,1.65-7.434,3.739-10.732,6.212l-93.858-93.858
		c-5.054-9.207-6.35-19.822-3.623-29.999C108.9,58.644,115.614,49.894,125,44.475C131.169,40.913,138.169,39.03,145.243,39.03z
		 M90.275,71.676c-0.94,6.427-0.745,12.898,0.556,19.172c-3.667-0.757-7.41-1.144-11.169-1.144c-2.696,0-5.366,0.204-7.993,0.588
		c1.948-3.981,4.553-7.64,7.768-10.855C82.647,76.226,86.301,73.623,90.275,71.676z M28.003,165.919
		c2.399,6.036,5.805,11.544,10.069,16.328c-6.175,2.054-11.87,5.167-16.874,9.117c-0.306-4.428,0.12-8.906,1.299-13.304
		C23.672,173.674,25.534,169.593,28.003,165.919z M79.658,380.296c3.769,0,7.522-0.39,11.197-1.15
		c-1.312,6.382-1.466,12.879-0.545,19.195c-3.988-1.949-7.653-4.557-10.873-7.776c-3.215-3.216-5.82-6.875-7.769-10.856
		C74.295,380.092,76.963,380.296,79.658,380.296z M109.712,370.894l93.864-93.863c3.299,2.473,6.9,4.562,10.733,6.212
		l-34.344,128.173c-7.328,12.076-20.54,19.554-34.722,19.554c-7.074,0-14.074-1.883-20.243-5.444
		C105.889,414.492,99.159,390.152,109.712,370.894z M379.725,398.324c0.94-6.427,0.745-12.898-0.556-19.172
		c3.667,0.757,7.41,1.144,11.169,1.144c2.696,0,5.366-0.204,7.993-0.588c-1.948,3.981-4.553,7.64-7.768,10.855
		C387.353,393.774,383.699,396.377,379.725,398.324z M441.997,304.08c-2.399-6.036-5.805-11.544-10.069-16.327
		c6.175-2.054,11.87-5.167,16.874-9.117c0.306,4.428-0.12,8.906-1.299,13.304C446.328,296.326,444.466,300.407,441.997,304.08z"/>
	<path style="fill:#FFD572;" d="M272.5,235c0-20.678-16.822-37.5-37.5-37.5s-37.5,16.822-37.5,37.5s16.822,37.5,37.5,37.5
		S272.5,255.678,272.5,235z"/>
</g>
<g>
</g>
<g>
</g>
<g>
</g>
<g>
</g>
<g>
</g>
<g>
</g>
<g>
</g>
<g>
</g>
<g>
</g>
<g>
</g>
<g>
</g>
<g>
</g>
<g>
</g>
<g>
</g>
<g>
</g>
</svg>
