<?xml version="1.0" encoding="iso-8859-1"?>
<!-- Generator: Adobe Illustrator 19.0.0, SVG Export Plug-In . SVG Version: 6.00 Build 0)  -->
<svg version="1.1" id="Layer_1" xmlns="http://www.w3.org/2000/svg" xmlns:xlink="http://www.w3.org/1999/xlink" x="0px" y="0px"
	 viewBox="0 0 512 512" style="enable-background:new 0 0 512 512;" xml:space="preserve">
<path style="fill:#FFA08C;" d="M259.271,358.619c0,0-144.917-78.31,0-228.529C404.177,280.309,259.271,358.619,259.271,358.619z"/>
<path style="fill:#FF917A;" d="M259.265,358.621c0,0-34.103-143.158-146.685-157.413
	C112.581,201.208,67.833,358.621,259.265,358.621z"/>
<path style="fill:#FF8970;" d="M259.265,358.621c0,0-99.699-82.971-215.009-72.621C44.257,285.999,89.079,374.317,259.265,358.621z"
	/>
<path style="fill:#FFAD9C;" d="M259.265,358.621c0,0,34.103-143.158,146.685-157.413
	C405.95,201.208,450.699,358.621,259.265,358.621z"/>
<path style="fill:#FCB5A6;" d="M259.265,358.621c0,0,99.699-82.971,215.009-72.621C474.275,285.999,429.453,374.317,259.265,358.621
	z"/>
<path style="fill:#FF917A;" d="M247.198,332.955c-31.106-33.025-62.459-97.635,22.038-192.14c-3.16-3.534-6.476-7.108-9.966-10.726
	c-119.104,123.461-42.435,198.344-11.342,221.105C247.65,345.119,247.446,339.036,247.198,332.955z"/>
<path style="fill:#FF8970;" d="M130.091,204.614c-5.618-1.474-11.444-2.637-17.51-3.405c0,0-44.749,157.412,146.685,157.412
	c0,0-0.046-0.19-0.131-0.526C104.528,349.118,125.1,226.7,130.091,204.614z"/>
<path style="fill:#F7765B;" d="M72.707,285.999c1.986-0.179,3.966-0.323,5.942-0.446c-11.248-0.678-22.739-0.599-34.393,0.446
	c0,0,40.431,79.625,190.231,74.215C107.944,355.387,72.707,285.999,72.707,285.999z"/>
<path style="fill:#FFA08C;" d="M262.056,358.418c7.976-2.259,16.041-4.251,24.014-6.534c-0.5,0.002-0.984,0.016-1.489,0.016
	c0,0,27.868-116.946,116.359-149.96c-108.585,17.788-141.675,156.681-141.675,156.681c0.712,0,1.403-0.014,2.109-0.018
	C261.601,358.539,261.829,358.482,262.056,358.418z"/>
<path style="fill:#FFAD9C;" d="M300.255,358.621c0,0,77.04-64.101,174-72.582c0.008-0.016,0.02-0.039,0.02-0.039
	c-115.31-10.35-215.009,72.621-215.009,72.621c21.788,2.009,41.509,2.305,59.356,1.308
	C312.662,359.624,306.554,359.202,300.255,358.621z"/>
<path id="SVGCleanerId_0" style="fill:#FF8970;" d="M489.157,381.91H22.843c-8.287,0-15.006-6.719-15.006-15.006l0,0
	c0-8.287,6.719-15.006,15.006-15.006h466.315c8.287,0,15.006,6.719,15.006,15.006l0,0
	C504.163,375.192,497.445,381.91,489.157,381.91z"/>
<path style="fill:#F78972;" d="M26.645,366.905c0-8.287,6.719-15.006,15.006-15.006H22.843c-8.287,0-15.006,6.719-15.006,15.006
	c0,8.288,6.719,15.006,15.006,15.006h18.808C33.364,381.91,26.645,375.192,26.645,366.905z"/>
<g>
	<path id="SVGCleanerId_0_1_" style="fill:#FF8970;" d="M489.157,381.91H22.843c-8.287,0-15.006-6.719-15.006-15.006l0,0
		c0-8.287,6.719-15.006,15.006-15.006h466.315c8.287,0,15.006,6.719,15.006,15.006l0,0
		C504.163,375.192,497.445,381.91,489.157,381.91z"/>
</g>
<path style="fill:#F7765B;" d="M26.645,366.905c0-8.287,6.719-15.006,15.006-15.006H22.843c-8.287,0-15.006,6.719-15.006,15.006
	c0,8.288,6.719,15.006,15.006,15.006h18.808C33.364,381.91,26.645,375.192,26.645,366.905z"/>
<path d="M489.157,344.061H395.68c14.425-5.099,26.224-10.895,35.659-16.522c33.98-20.263,46.104-42.752,46.604-43.7
	c1.225-2.323,1.204-5.104-0.054-7.409c-1.259-2.305-3.588-3.826-6.205-4.052c-20.205-1.749-41.12-0.895-62.489,2.5
	c12.377-39,1.53-76.78,1.008-78.547c-1.085-3.673-4.659-6.015-8.465-5.56c-28.259,3.447-54.071,14.596-76.915,33.18
	c-2.593-10.574-6.659-21.346-12.157-32.176c-1.959-3.861-6.675-5.402-10.536-3.441c-3.859,1.959-5.399,6.676-3.44,10.535
	c6.453,12.713,10.687,25.233,12.627,37.278c-29.258,29.191-46.484,65.519-55.314,88.77c-8.829-23.251-26.058-59.579-55.321-88.769
	c4.794-29.774,23.373-61.645,55.32-94.872c9.783,10.184,18.384,20.311,25.627,30.179c2.561,3.49,7.466,4.242,10.955,1.68
	c3.489-2.56,4.242-7.466,1.681-10.954c-9.052-12.333-20.061-24.996-32.724-37.638c-3.058-3.054-8.011-3.054-11.072-0.002
	c-34.233,34.157-55.461,67.528-63.288,99.414c-22.846-18.587-48.66-29.737-76.92-33.184c-3.799-0.461-7.38,1.889-8.465,5.56
	c-0.522,1.768-11.376,39.585,1.03,78.602c-19.815-3.169-40.872-4.427-62.51-2.556c-2.616,0.226-4.945,1.747-6.205,4.052
	c-1.258,2.305-1.279,5.087-0.054,7.409c0.499,0.948,12.623,23.438,46.603,43.7c9.435,5.627,21.233,11.423,35.656,16.522H22.843
	C10.247,344.061,0,354.308,0,366.905c0,12.596,10.247,22.842,22.843,22.842h82.692c4.328,0,7.837-3.508,7.837-7.837
	s-3.509-7.837-7.837-7.837H22.843c-3.953,0-7.169-3.216-7.169-7.169c0-3.953,3.216-7.169,7.169-7.169h466.314
	c3.953,0,7.169,3.216,7.169,7.169c0,3.953-3.215,7.169-7.168,7.169H146.286c-4.328,0-7.837,3.508-7.837,7.837
	s3.509,7.837,7.837,7.837h342.872c12.595,0,22.842-10.247,22.842-22.842S501.753,344.061,489.157,344.061z M391.249,278.305
	c-5.782,1.289-11.59,2.748-17.423,4.402c-4.164,1.181-6.582,5.513-5.402,9.678c1.181,4.163,5.51,6.577,9.678,5.402
	c26.776-7.59,52.962-11.124,78.057-10.561c-6.486,7.457-17.332,17.765-33.915,27.485c-26.035,15.26-71.423,31.874-143.593,29.004
	c14.379-9.383,36.696-22.481,64.007-33.647c4.006-1.637,5.926-6.213,4.288-10.219c-1.637-4.006-6.211-5.927-10.22-4.288
	c-28.087,11.483-50.828,24.708-65.81,34.44c8.667-22.579,25.659-58.164,54.138-85.364c21.035-20.107,45.108-32.626,71.648-37.275
	C399.267,220.286,403.058,250.159,391.249,278.305z M115.312,207.361c26.533,4.652,50.602,17.17,71.636,37.275
	c28.493,27.208,45.488,62.806,54.154,85.384c-11.27-7.317-26.937-16.618-45.996-25.69c-19.792-9.42-45.366-19.486-74.32-25.953
	C108.993,250.316,112.764,220.326,115.312,207.361z M55.844,287.23c52.213-1.149,100.107,15.866,132.153,31.075
	c18.848,8.946,34.41,18.253,45.365,25.408c-72.161,2.873-117.571-13.744-143.605-29.004C73.173,304.99,62.326,294.682,55.844,287.23
	z"/>
<g>
</g>
<g>
</g>
<g>
</g>
<g>
</g>
<g>
</g>
<g>
</g>
<g>
</g>
<g>
</g>
<g>
</g>
<g>
</g>
<g>
</g>
<g>
</g>
<g>
</g>
<g>
</g>
<g>
</g>
</svg>
