<?xml version="1.0" encoding="iso-8859-1"?>
<!-- Generator: Adobe Illustrator 19.0.0, SVG Export Plug-In . SVG Version: 6.00 Build 0)  -->
<svg version="1.1" id="Layer_1" xmlns="http://www.w3.org/2000/svg" xmlns:xlink="http://www.w3.org/1999/xlink" x="0px" y="0px"
	 viewBox="0 0 512 512" style="enable-background:new 0 0 512 512;" xml:space="preserve">
<path style="fill:#FFF082;" d="M358.614,213.244c-47.148,0-85.512-38.359-85.512-85.511s38.364-85.511,85.512-85.511
	s85.511,38.359,85.511,85.511S405.762,213.244,358.614,213.244z"/>
<path style="fill:#FF6987;" d="M358.614,67.875c-33.005,0-59.858,26.853-59.858,59.858s26.853,59.858,59.858,59.858
	s59.858-26.853,59.858-59.858S391.619,67.875,358.614,67.875z"/>
<path style="fill:#F05573;" d="M358.614,93.528c-18.861,0-34.205,15.344-34.205,34.205s15.344,34.205,34.205,34.205
	c18.861,0,34.205-15.344,34.205-34.205S377.474,93.528,358.614,93.528z"/>
<path style="fill:#CDEBFF;" d="M325.263,503.983H169.634c-9.105,0-16.614-7.134-17.08-16.227l-16.271-317.268v-34.205
	c0-4.722,3.829-8.551,8.551-8.551h205.228c4.722,0,8.551,3.829,8.551,8.551v34.205l-16.27,317.268
	C341.877,496.849,334.369,503.983,325.263,503.983z"/>
<path style="fill:#B9DCF5;" d="M324.072,162.472H211.204l-0.097-34.739h-66.271c-4.722,0-8.551,3.829-8.551,8.551v34.205
	l16.271,317.268c0.466,9.093,7.975,16.227,17.08,16.227h52.375c-2.977,0-5.432-7.134-5.584-16.227l-5.177-309.251h113.161
	c4.51,0,8.149-3.723,8.014-8.264C332.29,165.854,328.462,162.472,324.072,162.472z"/>
<path style="fill:#C8FF82;" d="M348.271,238.898c-25.231,0-25.231-8.551-50.465-8.551c-25.215,0-25.215,8.551-50.431,8.551
	c-25.192,0-25.192-8.551-50.387-8.551c-25.207,0-25.207,8.551-50.413,8.551c-2.524,0-4.729-0.109-6.797-0.263l3.518,68.588
	c1.071,0.035,2.105,0.084,3.279,0.084c25.207,0,25.207-8.551,50.413-8.551c25.194,0,25.194,8.551,50.387,8.551
	c25.216,0,25.216-8.551,50.431-8.551c25.232,0,25.232,8.551,50.465,8.551c1.233,0,2.213-0.087,3.332-0.125l3.516-68.552
	C353.035,238.787,350.818,238.898,348.271,238.898z"/>
<g>
	<path style="fill:#B4E66E;" d="M196.99,230.347c-25.207,0-25.207,8.551-50.413,8.551c-2.524,0-4.729-0.109-6.797-0.263
		l3.518,68.588c1.071,0.035,2.105,0.084,3.279,0.084c25.207,0,25.207-8.551,50.413-8.551c7.046,0,12.088,0.68,16.294,1.643
		l-1.15-68.674C208.158,230.901,203.391,230.347,196.99,230.347z"/>
	<path style="fill:#B4E66E;" d="M351.603,307.182c-1.119,0.039-2.098,0.125-3.332,0.125c-25.231,0-25.231-8.551-50.465-8.551
		c-25.215,0-25.215,8.551-50.431,8.551c-25.192,0-25.192-8.551-50.387-8.551c-25.207,0-25.207,8.551-50.413,8.551
		c-1.176,0-2.208-0.048-3.279-0.084v0.006l9.258,180.528c0.467,9.093,7.975,16.227,17.08,16.227h155.629
		c9.106,0,16.614-7.134,17.08-16.227l9.26-180.568v-0.006H351.603z"/>
</g>
<g>
	<path style="fill:#93D46E;" d="M216.426,487.756l-3.141-187.358c-4.207-0.963-9.248-1.643-16.294-1.643
		c-25.207,0-25.207,8.551-50.413,8.551c-1.176,0-2.208-0.048-3.279-0.084v0.006l9.258,180.528c0.115,2.272,0.673,4.424,1.585,6.372
		c0.912,1.948,2.178,3.691,3.715,5.151c1.537,1.46,3.344,2.636,5.335,3.447c1.991,0.811,4.169,1.257,6.444,1.257h52.374
		C219.033,503.983,216.578,496.849,216.426,487.756z"/>
	<path style="fill:#93D46E;" d="M151.632,469.779l0.921,17.978c0.467,9.093,7.975,16.227,17.08,16.227h155.629
		c9.106,0,16.614-7.134,17.08-16.227l0.921-17.978H151.632z"/>
</g>
<path style="fill:#7DC86E;" d="M216.426,487.756l-0.301-17.978h-64.492l0.921,17.978c0.115,2.272,0.673,4.424,1.585,6.372
	c0.912,1.948,2.178,3.691,3.715,5.151s3.344,2.636,5.335,3.447c1.991,0.811,4.169,1.257,6.444,1.257h52.375
	C219.033,503.983,216.578,496.849,216.426,487.756z"/>
<path d="M307.307,178.505h17.102c4.427,0,8.017-3.589,8.017-8.017s-3.589-8.017-8.017-8.017h-17.102
	c-4.427,0-8.017,3.589-8.017,8.017S302.88,178.505,307.307,178.505z"/>
<path d="M307.307,461.762H187.591c-4.427,0-8.017,3.589-8.017,8.017s3.589,8.017,8.017,8.017h119.716
	c4.427,0,8.017-3.589,8.017-8.017S311.734,461.762,307.307,461.762z"/>
<path d="M452.142,127.733c0-51.572-41.956-93.528-93.528-93.528c-48.871,0-89.101,37.679-93.181,85.511h-51.852l-15.77-98.566
	C195.85,8.895,185.419,0,173.007,0H67.875c-4.427,0-8.017,3.589-8.017,8.017s3.589,8.017,8.017,8.017h105.132
	c4.489,0,8.263,3.217,8.972,7.65l15.365,96.033h-52.509c-9.136,0-16.568,7.432-16.568,16.568v34.205c0,0.137,0.003,0.274,0.011,0.41
	l16.271,317.268C145.234,501.531,156.253,512,169.634,512h155.63c13.383,0,24.401-10.469,25.086-23.832L364.046,221.1
	C413.098,218.276,452.142,177.481,452.142,127.733z M144.301,136.284c0-0.295,0.239-0.534,0.534-0.534h205.228
	c0.295,0,0.534,0.239,0.534,0.534v33.998l-3.104,60.535c-1.021,0.037-2.066,0.064-3.167,0.064c-10.751,0-15.769-1.77-21.58-3.819
	c-6.289-2.218-13.418-4.732-26.914-4.732c-13.488,0-20.613,2.514-26.898,4.733c-5.806,2.049-10.82,3.818-21.562,3.818
	c-7.502,0-12.205-0.866-16.339-2.086l-8.047-50.289h50.115c4.427,0,8.017-3.589,8.017-8.017s-3.589-8.017-8.017-8.017h-52.679
	l-0.288-1.799c-0.7-4.372-4.811-7.35-9.183-6.65c-4.126,0.66-7.006,4.359-6.729,8.447h-33.735c-4.427,0-8.017,3.589-8.017,8.017
	s3.589,8.017,8.017,8.017h36.262l7.221,45.136c-4.032-0.782-8.855-1.312-15.017-1.312c-13.484,0-20.607,2.515-26.89,4.733
	c-5.804,2.049-10.816,3.818-21.553,3.818c-1.079,0-2.104-0.025-3.106-0.061l-3.105-60.537V136.284z M237.921,271.836
	c-0.7-4.372-4.81-7.354-9.183-6.65c-4.372,0.699-7.349,4.81-6.65,9.183l3.354,20.966c-6.189-2.184-13.286-4.596-26.488-4.596
	c-13.484,0-20.606,2.515-26.89,4.733c-5.728,2.022-10.696,3.769-21.148,3.814l-2.687-52.404c0.75,0.016,1.502,0.032,2.282,0.032
	c13.484,0,20.606-2.515,26.89-4.733c5.804-2.049,10.816-3.818,21.553-3.818c10.731,0,15.739,1.769,21.538,3.818
	c6.281,2.219,13.401,4.733,26.879,4.733c13.488,0,20.613-2.514,26.898-4.733c5.806-2.049,10.82-3.818,21.562-3.818
	c10.751,0,15.769,1.77,21.58,3.819c6.289,2.218,13.418,4.732,26.913,4.732c0.801,0,1.574-0.015,2.344-0.032l-2.687,52.404
	c-10.508-0.038-15.489-1.788-21.236-3.816c-6.289-2.218-13.418-4.732-26.914-4.732c-13.488,0-20.613,2.514-26.898,4.733
	c-5.806,2.049-10.82,3.818-21.562,3.818c-1.858,0-3.535-0.057-5.084-0.155L237.921,271.836z M325.263,495.967H169.634
	c-4.84,0-8.826-3.786-9.074-8.621l-8.823-172.036c12.683-0.15,19.576-2.57,25.663-4.718c5.804-2.049,10.816-3.818,21.553-3.818
	c10.731,0,15.739,1.769,21.538,3.818c2.376,0.839,4.874,1.721,7.79,2.493l19.801,123.758c0.631,3.943,4.036,6.751,7.906,6.751
	c0.421,0,0.848-0.033,1.276-0.102c4.372-0.699,7.349-4.81,6.65-9.183l-19.042-119.014c0.808,0.019,1.64,0.03,2.499,0.03
	c13.488,0,20.613-2.514,26.898-4.733c5.806-2.049,10.82-3.818,21.562-3.818c10.751,0,15.769,1.77,21.58,3.819
	c6.102,2.152,13.014,4.576,25.748,4.718l-8.823,172.036C334.089,492.181,330.104,495.967,325.263,495.967z M364.873,204.953
	l1.747-34.054c0.006-0.137,0.011-0.274,0.011-0.41v-23.402l20.52,20.52c1.565,1.565,3.617,2.348,5.668,2.348
	s4.103-0.782,5.668-2.348c3.131-3.131,3.131-8.207,0-11.337l-28.536-28.536l28.536-28.536c3.131-3.131,3.131-8.207,0-11.337
	c-3.131-3.131-8.207-3.131-11.337,0l-28.536,28.536L330.078,87.86c-3.131-3.131-8.207-3.131-11.337,0
	c-3.131,3.131-3.131,8.207,0,11.337l20.52,20.52h-57.727c4.024-38.978,37.056-69.478,77.081-69.478
	c42.731,0,77.495,34.764,77.495,77.495C436.109,168.354,404.685,201.753,364.873,204.953z"/>
<g>
</g>
<g>
</g>
<g>
</g>
<g>
</g>
<g>
</g>
<g>
</g>
<g>
</g>
<g>
</g>
<g>
</g>
<g>
</g>
<g>
</g>
<g>
</g>
<g>
</g>
<g>
</g>
<g>
</g>
</svg>
