<?xml version="1.0" encoding="iso-8859-1"?>
<!-- Generator: Adobe Illustrator 19.0.0, SVG Export Plug-In . SVG Version: 6.00 Build 0)  -->
<svg version="1.1" id="Layer_1" xmlns="http://www.w3.org/2000/svg" xmlns:xlink="http://www.w3.org/1999/xlink" x="0px" y="0px"
	 viewBox="0 0 512.001 512.001" style="enable-background:new 0 0 512.001 512.001;" xml:space="preserve">
<path style="fill:#A3E261;" d="M419.124,177.773c20.935,32.667,33.098,74.305,33.098,115.975
	c0,115.964-94.002,209.967-209.967,209.967S32.288,409.712,32.288,293.748c0-41.671,12.163-83.308,33.098-115.975"/>
<path style="fill:#8EC64E;" d="M122.236,293.748c0-41.671,12.163-83.308,33.098-115.975H65.386
	c-20.935,32.667-33.098,74.305-33.098,115.975c0,115.964,94.002,209.967,209.967,209.967c15.44,0,30.483-1.681,44.974-4.844
	C192.88,478.279,122.236,394.273,122.236,293.748z"/>
<g>
	<path style="fill:#DBF9B4;" d="M446.477,243.814c-20.67,27.088-69.19,45.073-112.639,45.073c-43.46,0-81.022,53.027-121.521,44.93
		c-34.512-6.905-52.994-29.85-90.047-36.478c-6.43-1.16-13.434-1.823-21.167-1.823c-52.287,0-62.208-55.336-62.208-55.336v-0.011
		c5.612-22.592,14.649-43.924,26.481-62.396h0.077c-0.243,0.674-0.453,1.359-0.619,2.044c-0.309,1.204-0.497,2.408-0.574,3.635
		c0,0.011,0,0.011,0,0.022c-0.033,0.398-0.044,0.806-0.044,1.215c0,6.319,3.049,12.406,8.683,18.096
		c10.904,11.047,31.54,20.659,58.584,27.729v0.011c0.287,0.077,0.563,0.144,0.851,0.221c30.27,7.822,68.439,12.484,109.921,12.484
		c72.968,0,135.695-14.439,163.181-35.098c0.574-0.431,1.138-0.873,1.679-1.315c1.646-1.315,3.137-2.651,4.485-4.032
		c5.634-5.7,8.672-11.788,8.672-18.096c0-0.586-0.022-1.171-0.077-1.745c-0.022-0.298-0.055-0.586-0.099-0.873
		c-0.033-0.287-0.088-0.586-0.133-0.873s-0.099-0.574-0.177-0.862c-0.066-0.287-0.133-0.574-0.21-0.862
		c-0.155-0.563-0.331-1.138-0.541-1.701h0.077C431.585,197.238,440.942,219.885,446.477,243.814z"/>
	<path style="fill:#DBF9B4;" d="M420.284,184.688c0,6.319-3.049,12.406-8.683,18.096c-1.348,1.381-2.839,2.718-4.485,4.032
		c-0.541,0.442-1.105,0.884-1.679,1.315c-27.486,20.659-90.213,35.098-163.181,35.098c-41.483,0-79.652-4.662-109.921-12.484
		c-0.287-0.077-0.563-0.155-0.851-0.232c-27.044-7.07-47.681-16.682-58.584-27.729c-5.634-5.7-8.672-11.788-8.672-18.096
		c0-0.409,0.011-0.806,0.033-1.215c0-0.011,0-0.011,0-0.022c0.088-1.215,0.276-2.43,0.574-3.635
		c6.032-24.072,56.397-44.035,124.206-51.006l23.012,0.331l97.979,1.403c58.507,7.921,101.349,25.807,109.016,47.228
		c0.21,0.563,0.387,1.127,0.53,1.701c0.077,0.287,0.144,0.574,0.21,0.862c0.077,0.287,0.133,0.574,0.177,0.862
		c0.044,0.287,0.099,0.586,0.133,0.873c0.044,0.287,0.077,0.574,0.099,0.873C420.262,183.517,420.284,184.103,420.284,184.688z"/>
</g>
<path style="fill:#BED893;" d="M212.051,129.142l-12.218,52.011c-29.485,7.203-62.705,30.347-68.35,49.36v0.011
	c-6.01,20.25-9.247,41.726-9.247,63.224c0,1.204,0.011,2.397,0.033,3.59c-6.43-1.16-13.434-1.823-21.167-1.823
	c-52.287,0-62.208-55.336-62.208-55.336v-0.011c5.612-22.592,14.649-43.924,26.481-62.396h0.077
	c-0.243,0.674-0.453,1.359-0.619,2.044c6.032-24.072,56.397-44.035,124.206-51.006L212.051,129.142z"/>
<path style="fill:#333333;" d="M306.706,135.24c15.212,5.248,24.558,12.351,24.558,20.184c0,12.616-24.282,23.365-58.33,27.475
	c-9.556,1.16-19.896,1.79-30.679,1.79c-2.839,0-5.634-0.044-8.407-0.133c-45.217-1.392-80.613-13.898-80.613-29.132
	c0-9.644,14.185-18.206,36.081-23.542"/>
<g>
	<path style="fill:#A3E261;" d="M254.945,154.784c0,0-11.693-47.071-58.092-66.956c0,0-26.18,46.086,16.001,95.22l48.177,0.984"/>
	<path style="fill:#A3E261;" d="M293.353,100.577c-11.765-49.117-46.418-76.824-46.418-76.824s-21.962,27.025-14.701,89.928
		l9.082,60.334l36.367-23.585l16.019-41.98"/>
</g>
<polyline style="fill:#FFD41D;" points="272.934,182.899 306.706,135.24 360.805,58.87 479.714,38.778 474.511,8.287 
	342.974,30.533 273.884,128.059 233.848,184.556 "/>
<path d="M311.379,238.735c0.647,4.08,4.169,6.987,8.173,6.987c0.432,0,0.868-0.034,1.309-0.104
	c11.688-1.855,22.701-4.117,32.895-6.733l6.087,18.691c1.139,3.499,4.386,5.721,7.876,5.721c0.852,0,1.716-0.131,2.567-0.41
	c4.35-1.417,6.73-6.093,5.313-10.444l-5.916-18.163c9.894-3.203,18.762-6.78,26.375-10.688c4.072-2.09,5.677-7.084,3.587-11.155
	c-2.09-4.072-7.086-5.676-11.155-3.587c-1.096,0.562-2.223,1.117-3.377,1.665l-23.792-16.128c-3.788-2.569-8.94-1.579-11.507,2.209
	c-2.567,3.787-1.579,8.94,2.209,11.507l14.465,9.806c-13.845,4.626-30.134,8.469-48.227,11.341
	C313.744,229.97,310.662,234.216,311.379,238.735z"/>
<path d="M121.042,273.821c0.956,0.357,1.934,0.526,2.898,0.526c3.358,0,6.519-2.058,7.763-5.389l10.233-27.403
	c29.411,6.443,64.041,9.959,100.319,9.959c14.754,0,29.435-0.587,43.631-1.742c4.56-0.371,7.956-4.37,7.585-8.931
	c-0.372-4.561-4.365-7.955-8.932-7.585c-11.09,0.904-22.496,1.43-33.998,1.606v-13.346c0-4.576-3.709-8.286-8.286-8.286
	c-4.577,0-8.286,3.71-8.286,8.286v13.361c-41.037-0.621-79.258-5.835-108.955-14.741l4.928-11.261
	c1.834-4.192-0.076-9.078-4.269-10.913c-4.19-1.835-9.077,0.076-10.913,4.268l-5.481,12.52c-1.463-0.57-2.905-1.147-4.308-1.738
	c-4.212-1.779-9.075,0.197-10.854,4.413c-1.779,4.216,0.198,9.077,4.412,10.855c8.174,3.449,17.307,6.549,27.206,9.283
	l-9.559,25.599C114.578,267.448,116.756,272.22,121.042,273.821z"/>
<path d="M487.883,37.383l-5.203-30.491c-0.768-4.506-5.029-7.538-9.55-6.775L341.592,22.363c-2.171,0.367-4.106,1.583-5.379,3.381
	l-39.842,56.24c-14.919-40.843-42.927-63.635-44.261-64.701c-3.555-2.842-8.735-2.285-11.604,1.246
	c-0.621,0.763-15.216,19.147-17.674,58.872c-0.283,4.567,3.19,8.499,7.757,8.782c4.566,0.281,8.498-3.192,8.78-7.757
	c1.244-20.108,5.908-33.721,9.514-41.492c9.832,10.135,27.269,31.466,35.492,61.985l-17.253,24.353l-9.891,13.957
	c-7.714-16.804-24.393-42.99-57.115-57.013c-3.877-1.66-8.385-0.146-10.469,3.523c-0.304,0.537-7.486,13.372-8.877,32.681
	c-0.115,1.594-0.19,3.265-0.217,5.002c-33.542,3.99-62.598,11.104-84.385,20.701c-23.596,10.393-33.954,21.761-37.985,31.539
	C36.14,208.221,24.001,250.85,24.001,293.749c0,120.345,97.907,218.252,218.253,218.252c61.039,0,119.707-25.826,160.964-70.856
	c3.091-3.374,2.862-8.615-0.513-11.706c-3.373-3.091-8.614-2.861-11.707,0.513c-38.125,41.612-92.34,65.479-148.745,65.479
	c-111.207,0-201.682-90.474-201.682-201.681c0-7.891,0.488-15.833,1.396-23.745c0.477,0.789,0.969,1.58,1.485,2.371
	c13.4,20.563,33.337,31.431,57.654,31.431c21.784,0,36.478,5.577,47.98,11.032c1.147,0.544,2.355,0.801,3.545,0.801
	c3.101,0,6.074-1.749,7.491-4.737c1.961-4.134,0.2-9.075-3.936-11.036c-12.398-5.881-29.862-12.63-55.08-12.63
	c-40.197,0-51.556-37.853-53.669-46.744c3.459-13.434,8.172-26.442,14.011-38.592c2.82,4.213,6.716,8.261,11.678,12.119
	c1.511,1.175,3.302,1.744,5.081,1.744c2.469,0,4.913-1.099,6.547-3.2c2.809-3.613,2.158-8.818-1.455-11.626
	c-4.923-3.827-10.791-9.753-10.791-16.247c0-13.89,26.709-31.22,76.935-41.534c-2.964,3.794-4.497,7.904-4.497,12.269
	c0,23.96,44.521,36.055,88.633,37.413c2.847,0.091,5.766,0.137,8.672,0.137c10.906,0,21.564-0.622,31.671-1.849
	c41.092-4.96,65.624-18.306,65.624-35.701c0-3.59-1.051-7.85-4.427-12.229c50.564,10.413,76.875,27.803,76.875,41.494
	c0,3.572-1.755,7.323-5.218,11.153c-3.068,3.395-2.803,8.634,0.591,11.702c1.586,1.433,3.572,2.139,5.554,2.139
	c2.26,0,4.513-0.92,6.149-2.73c1.504-1.663,2.824-3.356,3.973-5.076c6.033,12.548,10.875,26.007,14.364,39.909
	c-19.589,22.331-63.092,38.819-103.569,38.819c-22.939,0-43.347,12.608-63.084,24.802c-19.901,12.295-38.69,23.907-56.813,20.285
	c-12.204-2.44-22.389-7.059-33.925-13.241c-4.036-2.162-9.057-0.644-11.216,3.389c-2.162,4.033-0.644,9.056,3.389,11.216
	c12.837,6.88,24.299,12.044,38.503,14.885c3.446,0.689,6.849,1.006,10.219,1.006c20.606,0,39.855-11.891,58.553-23.444
	c17.769-10.978,36.142-22.329,54.374-22.329c40.418,0,82.569-14.589,107.505-36.074c1.702,10.835,2.59,21.79,2.59,32.646
	c0,40.649-12.035,79.825-34.801,113.293c-2.574,3.784-1.593,8.937,2.19,11.511c1.427,0.971,3.049,1.436,4.653,1.436
	c2.65,0,5.255-1.269,6.858-3.626c24.646-36.228,37.672-78.628,37.672-122.614c0-42.872-12.122-85.469-34.138-120.015
	c-5.507-13.46-20.414-23.224-33.351-29.458c-17.66-8.512-41.142-15.317-68.466-19.903l41.025-57.905L481.09,46.95
	c2.17-0.367,4.104-1.581,5.377-3.375C487.745,41.779,488.253,39.552,487.883,37.383z M342.565,45.441l8.278,13.155l-82.504,116.454
	c-5.997,0.63-12.164,1.063-18.483,1.244L342.565,45.441z M201.006,99.041c29.448,16.031,41.425,44.458,44.814,54.289l-16.136,22.77
	c-4.422-0.208-8.609-0.516-12.576-0.906C190.653,142.588,196.348,112.372,201.006,99.041z M161.521,155.424
	c0-2.311,5.383-8.045,21.167-13.09c2.005,9.103,5.642,19.036,11.762,29.325C171.91,166.621,161.521,158.919,161.521,155.424z
	 M291.26,171.362l18.471-26.072c9.528,4.113,13.247,8.233,13.247,10.134C322.978,158.942,313.205,166.324,291.26,171.362z
	 M364.873,49.779l-8.272-13.147l111.134-18.795l2.416,14.155L364.873,49.779z"/>
<g>
</g>
<g>
</g>
<g>
</g>
<g>
</g>
<g>
</g>
<g>
</g>
<g>
</g>
<g>
</g>
<g>
</g>
<g>
</g>
<g>
</g>
<g>
</g>
<g>
</g>
<g>
</g>
<g>
</g>
</svg>
