<?xml version="1.0" encoding="iso-8859-1"?>
<!-- Generator: Adobe Illustrator 19.0.0, SVG Export Plug-In . SVG Version: 6.00 Build 0)  -->
<svg version="1.1" id="Capa_1" xmlns="http://www.w3.org/2000/svg" xmlns:xlink="http://www.w3.org/1999/xlink" x="0px" y="0px"
	 viewBox="0 0 512.001 512.001" style="enable-background:new 0 0 512.001 512.001;" xml:space="preserve">
<path style="fill:#F2E9C7;" d="M426.039,490.907H85.962c-56.55,0-93.329-56.802-68.04-105.079L187.961,61.231
	c28.034-53.515,108.045-53.515,136.079,0l170.039,324.597C519.368,434.104,482.589,490.907,426.039,490.907z"/>
<rect x="157.511" y="293.924" style="fill:#AED581;" width="196.986" height="196.986"/>
<path d="M502.803,381.257L332.766,56.66c-14.674-28.012-44.089-45.415-76.765-45.415s-62.09,17.403-76.765,45.415L9.198,381.257
	c-13.076,24.964-12.164,54.278,2.442,78.417c15.564,25.723,43.348,41.081,74.322,41.081h71.545h196.986h71.545
	c30.974,0,58.758-15.358,74.322-41.081C514.966,435.535,515.879,406.221,502.803,381.257z M167.357,481.058v-137.89h49.247
	c5.439,0,9.849-4.411,9.849-9.849c0-5.439-4.411-9.849-9.849-9.849h-49.247V303.77h177.288v177.288H167.357z M483.507,449.477
	c-11.964,19.774-33.448,31.58-57.469,31.58h-61.696V293.92c0-5.439-4.411-9.849-9.849-9.849H157.507
	c-5.439,0-9.849,4.411-9.849,9.849v187.137H85.961c-24.021,0-45.504-11.805-57.469-31.58c-11.171-18.461-11.843-39.994-1.846-59.078
	L196.685,65.802c11.433-21.827,33.608-34.859,59.316-34.859c25.708,0,47.882,13.031,59.316,34.859l170.038,324.597
	C495.35,409.483,494.679,431.016,483.507,449.477z"/>
<path d="M255.242,329.555c-0.246-0.601-0.552-1.171-0.906-1.703c-0.354-0.543-0.767-1.045-1.221-1.498
	c-0.453-0.453-0.955-0.867-1.497-1.221c-0.532-0.364-1.103-0.66-1.704-0.906c-0.591-0.246-1.21-0.443-1.841-0.571
	c-1.271-0.246-2.571-0.246-3.841,0c-0.63,0.128-1.251,0.325-1.842,0.571c-0.601,0.246-1.171,0.542-1.703,0.906
	c-0.543,0.355-1.045,0.768-1.498,1.221c-0.453,0.453-0.867,0.955-1.221,1.498c-0.364,0.532-0.66,1.102-0.906,1.703
	c-0.246,0.592-0.443,1.211-0.571,1.842c-0.128,0.63-0.186,1.28-0.186,1.921c0,0.639,0.059,1.29,0.186,1.921
	c0.128,0.63,0.325,1.251,0.571,1.841c0.246,0.601,0.553,1.172,0.906,1.704c0.355,0.542,0.768,1.044,1.221,1.497
	c0.453,0.454,0.955,0.868,1.498,1.221c0.532,0.355,1.102,0.66,1.703,0.906c0.592,0.246,1.211,0.443,1.842,0.571
	c0.63,0.128,1.28,0.187,1.921,0.187c0.639,0,1.29-0.06,1.921-0.187c0.63-0.128,1.251-0.325,1.841-0.571
	c0.601-0.246,1.172-0.552,1.704-0.906c0.542-0.354,1.044-0.767,1.497-1.221c0.454-0.453,0.868-0.955,1.221-1.497
	c0.355-0.532,0.66-1.103,0.906-1.704c0.246-0.591,0.443-1.21,0.561-1.841c0.128-0.631,0.197-1.281,0.197-1.921
	c0-0.64-0.069-1.291-0.197-1.921C255.685,330.767,255.488,330.146,255.242,329.555z"/>
<g>
</g>
<g>
</g>
<g>
</g>
<g>
</g>
<g>
</g>
<g>
</g>
<g>
</g>
<g>
</g>
<g>
</g>
<g>
</g>
<g>
</g>
<g>
</g>
<g>
</g>
<g>
</g>
<g>
</g>
</svg>
