<?xml version="1.0" encoding="iso-8859-1"?>
<!-- Generator: Adobe Illustrator 19.0.0, SVG Export Plug-In . SVG Version: 6.00 Build 0)  -->
<svg version="1.1" id="Layer_1" xmlns="http://www.w3.org/2000/svg" xmlns:xlink="http://www.w3.org/1999/xlink" x="0px" y="0px"
	 viewBox="0 0 512 512" style="enable-background:new 0 0 512 512;" xml:space="preserve">
<path style="fill:#211919;" d="M296.773,67.1c-4.429,0-8.02-3.59-8.02-8.02V34.239c0-10.035-8.164-18.199-18.199-18.199h-29.108
	c-10.035,0-18.199,8.164-18.199,18.199v24.841c0,4.429-3.59,8.02-8.02,8.02s-8.02-3.59-8.02-8.02V34.239
	C207.206,15.36,222.567,0,241.446,0h29.108c18.879,0,34.239,15.36,34.239,34.239v24.841C304.794,63.509,301.203,67.1,296.773,67.1z"
	/>
<g>
	<path style="fill:#362928;" d="M322.517,512H189.483c-2.326,0-4.212-1.886-4.212-4.212v-34.151h141.458v34.151
		C326.729,510.114,324.843,512,322.517,512z"/>
	<path style="fill:#362928;" d="M326.729,92.833H185.271V58.68c0-2.326,1.886-4.212,4.212-4.212h133.034
		c2.326,0,4.212,1.886,4.212,4.212V92.833z"/>
</g>
<g>
	<path style="fill:#2E2322;" d="M208.436,54.469h-18.953c-2.326,0-4.212,1.886-4.212,4.212v34.151h18.953V58.681
		C204.224,56.354,206.109,54.469,208.436,54.469z"/>
	<path style="fill:#2E2322;" d="M208.436,512h-18.953c-2.326,0-4.212-1.886-4.212-4.212v-34.151h18.953v34.151
		C204.224,510.114,206.109,512,208.436,512z"/>
</g>
<path style="fill:#F75534;" d="M408.68,171.379v223.399c0,2.633-0.115,5.245-0.345,7.826c-3.992,45.871-42.789,82.181-89.663,82.181
	H193.327c-46.874,0-85.671-36.31-89.663-82.181c-0.23-2.581-0.345-5.193-0.345-7.826V171.379c0-49.507,40.5-90.008,90.008-90.008
	h125.346C368.18,81.371,408.68,121.872,408.68,171.379z"/>
<path style="fill:#BD391E;" d="M212.734,484.781h-19.406c-49.51,0-90.006-40.508-90.006-90.006V171.379
	c0-49.51,40.497-90.006,90.006-90.006h19.406c-49.499,0-90.006,40.497-90.006,90.006v223.395
	C122.727,444.274,163.235,484.781,212.734,484.781z"/>
<g>
	<rect x="103.32" y="171.98" style="fill:#362928;" width="305.361" height="16.05"/>
	<rect x="103.32" y="202.637" style="fill:#362928;" width="305.361" height="16.05"/>
	<rect x="103.32" y="233.284" style="fill:#362928;" width="305.361" height="16.05"/>
	<rect x="103.32" y="263.931" style="fill:#362928;" width="305.361" height="16.05"/>
	<rect x="103.32" y="294.599" style="fill:#362928;" width="305.361" height="16.039"/>
	<rect x="103.32" y="325.266" style="fill:#362928;" width="305.361" height="16.039"/>
	<rect x="103.32" y="355.913" style="fill:#362928;" width="305.361" height="16.039"/>
	<path style="fill:#362928;" d="M408.68,386.565v8.213c0,2.633-0.115,5.245-0.345,7.826H103.664
		c-0.23-2.581-0.345-5.193-0.345-7.826v-8.213H408.68z"/>
</g>
<g>
</g>
<g>
</g>
<g>
</g>
<g>
</g>
<g>
</g>
<g>
</g>
<g>
</g>
<g>
</g>
<g>
</g>
<g>
</g>
<g>
</g>
<g>
</g>
<g>
</g>
<g>
</g>
<g>
</g>
</svg>
